<?xml version="1.0" standalone="no"?>
<!DOCTYPE svg PUBLIC "-//W3C//DTD SVG 20010904//EN"
 "http://www.w3.org/TR/2001/REC-SVG-20010904/DTD/svg10.dtd">
<svg version="1.0" xmlns="http://www.w3.org/2000/svg"
 width="1000.000000pt" height="1000.000000pt" viewBox="0 0 1000.000000 1000.000000"
 preserveAspectRatio="xMidYMid meet">
<metadata>
Created by potrace 1.11, written by Peter Selinger 2001-2013
</metadata>
<g transform="translate(0.000000,1000.000000) scale(0.100000,-0.100000)"
fill="#000000" stroke="none">
<path d="M0 5000 l0 -5000 5000 0 5000 0 0 5000 0 5000 -5000 0 -5000 0 0
-5000z m4568 3333 l2 -413 430 0 430 0 2 413 3 412 432 3 433 2 2 -412 3 -413
495 0 c488 0 496 0 575 -23 297 -86 526 -300 613 -572 47 -144 53 -218 52
-662 l0 -418 435 0 435 0 0 -413 0 -414 -142 -6 c-79 -4 -275 -7 -435 -7
l-293 0 0 -410 0 -410 293 0 c160 0 356 -3 435 -7 l142 -6 0 -414 0 -413 -435
0 -436 0 2 -417 c2 -446 -4 -510 -52 -663 -70 -220 -245 -411 -459 -501 -180
-76 -347 -92 -836 -83 -216 4 -373 3 -376 -2 -3 -5 -9 -195 -13 -422 l-8 -412
-431 2 -431 3 -3 413 -2 412 -430 0 -430 0 -2 -412 -3 -413 -431 -3 -431 -2
-6 410 c-3 225 -9 415 -13 422 -5 8 -100 9 -370 4 -405 -7 -542 1 -701 40
-185 45 -303 113 -426 244 -116 124 -183 270 -218 475 -8 48 -11 203 -10 488
l2 417 -435 0 -436 0 0 414 0 413 46 7 c26 3 222 6 435 6 l389 0 0 193 c0 105
-3 290 -7 410 l-6 217 -429 0 -428 0 0 420 0 420 433 2 432 3 0 415 c0 457 5
509 59 672 45 135 86 198 201 313 85 85 114 107 195 147 198 100 363 121 905
116 l370 -3 6 365 c3 201 7 389 8 418 l1 52 433 -2 432 -3 3 -412z"/>
<path d="M2830 5000 l0 -2080 2170 0 2170 0 0 2080 0 2080 -2170 0 -2170 0 0
-2080z m3470 0 l0 -1250 -1300 0 -1300 0 0 1250 0 1250 1300 0 1300 0 0 -1250z"/>
<path d="M4570 5000 l0 -410 430 0 430 0 0 410 0 410 -430 0 -430 0 0 -410z"/>
</g>
</svg>
